<svg version="1.0" xmlns="http://www.w3.org/2000/svg" width="143.000000pt" height="143.000000pt" viewBox="0 0 143.000000 143.000000" preserveAspectRatio="xMidYMid meet">
  <g transform="translate(0.000000,143.000000) scale(0.066667,-0.066667)" fill="#000000" stroke="none">
    <path d="M1159 1990 c-204 -198 -163 -460 143 -927 183 -280 207 -394 131 -622 -49 -144 -48 -156 8 -103 165 158 245 316 246 487 1 161 -11 183 -239 455 -273 326 -322 478 -227 703 33 77 12 79 -62 7z"/>
    <path d="M818 1439 c-62 -195 -55 -319 27 -488 153 -313 170 -399 92 -450 -141 -93 -317 148 -333 455 -9 172 -13 177 -72 99 -316 -413 83 -1122 534 -951 183 69 262 189 262 399 0 166 -8 184 -208 528 -171 292 -216 384 -230 471 -13 86 -29 72 -72 -63z"/>
  </g>
</svg>
